<svg width="128" height="128" viewBox="0 0 128 128" fill="none" xmlns="http://www.w3.org/2000/svg">
<g filter="url(#filter0_d_3828_1941)">
<path d="M20 44C20 19.6995 39.6995 0 64 0C88.3005 0 108 19.6995 108 44C108 68.3005 88.3005 88 64 88C39.6995 88 20 68.3005 20 44Z" fill="#0A84FF"/>
<path fill-rule="evenodd" clip-rule="evenodd" d="M54.3638 36.58L45.0448 43.9347H59.4533L51.6863 45.8456L47.0977 59.7698C46.4058 61.8693 44.9774 63.6459 43.0778 64.7699L41 65.999H65.939L65.7264 65.5802C64.8972 63.947 64.7595 62.0478 65.3446 60.3117L72.6539 38.6228C72.9921 37.6194 72.2475 36.5796 71.1909 36.5797L54.3638 36.58Z" fill="white"/>
<path fill-rule="evenodd" clip-rule="evenodd" d="M79.5386 38.8412C78.8196 38.8412 78.2035 38.3279 78.0749 37.6218L77.5745 34.8739C77.3897 33.8596 76.5946 33.0658 75.5786 32.8814L72.826 32.3818C72.1186 32.2534 71.6045 31.6383 71.6045 30.9206C71.6045 30.2029 72.1186 29.5878 72.826 29.4594L75.5786 28.9598C76.5946 28.7754 77.3897 27.9816 77.5745 26.9673L78.0749 24.2194C78.2035 23.5133 78.8196 23 79.5386 23C80.2575 23 80.8736 23.5133 81.0022 24.2194L81.5027 26.9673C81.6874 27.9816 82.4825 28.7754 83.4986 28.9598L86.2511 29.4594C86.9585 29.5878 87.4727 30.2029 87.4727 30.9206C87.4727 31.6383 86.9585 32.2534 86.2511 32.3818L83.4986 32.8814C82.4825 33.0658 81.6874 33.8596 81.5027 34.8739L81.0022 37.6218C80.8736 38.3279 80.2575 38.8412 79.5386 38.8412Z" fill="white"/>
<path fill-rule="evenodd" clip-rule="evenodd" d="M79.5341 54.6851C78.9016 54.6851 78.3456 54.2665 78.1718 53.6593L77.8039 52.3738C77.5798 51.5907 76.9666 50.9785 76.1822 50.7548L74.8945 50.3875C74.2863 50.214 73.8669 49.659 73.8669 49.0275C73.8669 48.396 74.2863 47.8411 74.8945 47.6676L76.1822 47.3003C76.9666 47.0765 77.5798 46.4644 77.8039 45.6813L78.1718 44.3958C78.3456 43.7886 78.9016 43.37 79.5341 43.37C80.1667 43.37 80.7226 43.7886 80.8964 44.3958L81.2643 45.6813C81.4885 46.4644 82.1016 47.0765 82.8861 47.3003L84.1738 47.6676C84.782 47.8411 85.2013 48.396 85.2013 49.0275C85.2013 49.659 84.782 50.214 84.1738 50.3875L82.8861 50.7548C82.1016 50.9785 81.4885 51.5907 81.2643 52.3738L80.8964 53.6593C80.7226 54.2665 80.1667 54.6851 79.5341 54.6851Z" fill="white"/>
<path fill-rule="evenodd" clip-rule="evenodd" d="M62.5421 33.1864C62.1626 33.1864 61.829 32.9352 61.7247 32.5709L61.504 31.7996C61.3695 31.3297 61.0016 30.9624 60.5309 30.8282L59.7583 30.6078C59.3934 30.5037 59.1418 30.1707 59.1418 29.7918C59.1418 29.4129 59.3934 29.0799 59.7583 28.9758L60.5309 28.7555C61.0016 28.6212 61.3695 28.2539 61.504 27.7841L61.7248 27.0128C61.829 26.6485 62.1626 26.3973 62.5421 26.3973C62.9217 26.3973 63.2552 26.6485 63.3595 27.0128L63.5802 27.7841C63.7147 28.2539 64.0826 28.6212 64.5533 28.7555L65.3259 28.9758C65.6908 29.0799 65.9424 29.4129 65.9424 29.7918C65.9424 30.1707 65.6908 30.5037 65.3259 30.6078L64.5533 30.8282C64.0826 30.9624 63.7147 31.3297 63.5802 31.7996L63.3595 32.5709C63.2552 32.9352 62.9217 33.1864 62.5421 33.1864Z" fill="white"/>
</g>
<defs>
<filter id="filter0_d_3828_1941" x="0" y="0" width="128" height="138" filterUnits="userSpaceOnUse" color-interpolation-filters="sRGB">
<feFlood flood-opacity="0" result="BackgroundImageFix"/>
<feColorMatrix in="SourceAlpha" type="matrix" values="0 0 0 0 0 0 0 0 0 0 0 0 0 0 0 0 0 0 127 0" result="hardAlpha"/>
<feOffset dy="30"/>
<feGaussianBlur stdDeviation="10"/>
<feComposite in2="hardAlpha" operator="out"/>
<feColorMatrix type="matrix" values="0 0 0 0 0 0 0 0 0 0 0 0 0 0 0 0 0 0 0.2 0"/>
<feBlend mode="normal" in2="BackgroundImageFix" result="effect1_dropShadow_3828_1941"/>
<feBlend mode="normal" in="SourceGraphic" in2="effect1_dropShadow_3828_1941" result="shape"/>
</filter>
</defs>
</svg>
