<svg preserveAspectRatio="none" width="100%" height="100%" overflow="visible" style="display: block;" viewBox="0 0 58.4814 11.1322" fill="none" xmlns="http://www.w3.org/2000/svg">
<g id="Group 33590">
<path id="Vector" d="M57.7658 0.526562L57.55 1.20918L54.7033 10.2404L54.5881 10.6076H13.8586L14.0803 9.92012L14.2092 9.51973L12.6047 10.5266L12.4768 10.6076H4.3332C3.20451 10.6076 2.36958 10.3919 1.76582 10.0197C1.1518 9.64125 0.817632 9.12542 0.656447 8.61055C0.499058 8.10754 0.509754 7.6181 0.552931 7.26875C0.57482 7.09183 0.605796 6.94376 0.632033 6.83809C0.645194 6.78508 0.656974 6.74212 0.666213 6.71113C0.670765 6.69587 0.674919 6.68343 0.677931 6.67402C0.679448 6.66929 0.680795 6.66447 0.681838 6.66133C0.682311 6.6599 0.68245 6.6585 0.682814 6.65742L0.683791 6.65645V6.65547L1.84004 3.09687L1.84102 3.0959C2.33692 1.58588 3.71767 0.967607 4.82344 0.715039C5.38835 0.586034 5.92105 0.541943 6.30977 0.529492C6.50502 0.523239 6.66652 0.524212 6.78047 0.527539C6.83723 0.529198 6.88237 0.531666 6.91426 0.533398C6.93024 0.534267 6.94324 0.534752 6.95235 0.535352H12.9631L12.7453 1.21992L12.675 1.44062L13.8908 0.616406L14.0236 0.526562H57.7658Z" fill="var(--fill-0, #003591)" stroke="var(--stroke-0, white)" stroke-width="1.05"/>
<g id="Vector_2">
<mask id="path-2-inside-1_0_62" fill="white">
<path d="M52.6313 8.32674H47.4495L49.1917 2.75254H54.3915L54.0233 3.92892L50.7364 3.91987L50.4401 4.84287H53.7359L53.3498 6.06449H50.0629L49.7306 7.15037H53.0085"/>
</mask>
<path d="M52.6313 8.32674H47.4495L49.1917 2.75254H54.3915L54.0233 3.92892L50.7364 3.91987L50.4401 4.84287H53.7359L53.3498 6.06449H50.0629L49.7306 7.15037H53.0085" fill="var(--fill-0, white)"/>
<path d="M47.4495 8.32674L47.3209 8.28654L47.2662 8.46151H47.4495V8.32674ZM49.1917 2.75254V2.61778H49.0927L49.0631 2.71234L49.1917 2.75254ZM54.3915 2.75254L54.5201 2.7928L54.5749 2.61778H54.3915V2.75254ZM54.0233 3.92892L54.023 4.06368L54.1223 4.06395L54.1519 3.96917L54.0233 3.92892ZM50.7364 3.91987L50.7368 3.7851L50.6382 3.78483L50.6081 3.87867L50.7364 3.91987ZM50.4401 4.84287L50.3117 4.80167L50.2552 4.97763H50.4401V4.84287ZM53.7359 4.84287L53.8644 4.88349L53.9199 4.7081H53.7359V4.84287ZM53.3498 6.06449V6.19925H53.4485L53.4783 6.1051L53.3498 6.06449ZM50.0629 6.06449V5.92972H49.9632L49.934 6.02505L50.0629 6.06449ZM49.7306 7.15037L49.6017 7.11093L49.5484 7.28513H49.7306V7.15037ZM52.6313 8.32674V8.19198H47.4495V8.32674V8.46151H52.6313V8.32674ZM47.4495 8.32674L47.5781 8.36695L49.3204 2.79275L49.1917 2.75254L49.0631 2.71234L47.3209 8.28654L47.4495 8.32674ZM49.1917 2.75254V2.88731H54.3915V2.75254V2.61778H49.1917V2.75254ZM54.3915 2.75254L54.2629 2.71229L53.8947 3.88866L54.0233 3.92892L54.1519 3.96917L54.5201 2.7928L54.3915 2.75254ZM54.0233 3.92892L54.0237 3.79415L50.7368 3.7851L50.7364 3.91987L50.736 4.05463L54.023 4.06368L54.0233 3.92892ZM50.7364 3.91987L50.6081 3.87867L50.3117 4.80167L50.4401 4.84287L50.5684 4.88407L50.8647 3.96107L50.7364 3.91987ZM50.4401 4.84287V4.97763H53.7359V4.84287V4.7081H50.4401V4.84287ZM53.7359 4.84287L53.6074 4.80225L53.2213 6.02387L53.3498 6.06449L53.4783 6.1051L53.8644 4.88349L53.7359 4.84287ZM53.3498 6.06449V5.92972H50.0629V6.06449V6.19925H53.3498V6.06449ZM50.0629 6.06449L49.934 6.02505L49.6017 7.11093L49.7306 7.15037L49.8595 7.1898L50.1917 6.10392L50.0629 6.06449ZM49.7306 7.15037V7.28513H53.0085V7.15037V7.0156H49.7306V7.15037Z" fill="var(--stroke-0, white)" mask="url(#path-2-inside-1_0_62)"/>
</g>
<g id="Vector_3">
<mask id="path-4-inside-2_0_62" fill="white">
<path d="M46.496 8.31769H41.8261L43.6222 2.75254H45.6519L44.2599 7.11417H46.8912"/>
</mask>
<path d="M46.496 8.31769H41.8261L43.6222 2.75254H45.6519L44.2599 7.11417H46.8912" fill="var(--fill-0, white)"/>
<path d="M41.8261 8.31769L41.6979 8.2763L41.641 8.45246H41.8261V8.31769ZM43.6222 2.75254V2.61778H43.5241L43.494 2.71115L43.6222 2.75254ZM45.6519 2.75254L45.7803 2.79352L45.8363 2.61778H45.6519V2.75254ZM44.2599 7.11417L44.1315 7.0732L44.0754 7.24894H44.2599V7.11417ZM46.496 8.31769V8.18293H41.8261V8.31769V8.45246H46.496V8.31769ZM41.8261 8.31769L41.9544 8.35908L43.7505 2.79393L43.6222 2.75254L43.494 2.71115L41.6979 8.2763L41.8261 8.31769ZM43.6222 2.75254V2.88731H45.6519V2.75254V2.61778H43.6222V2.75254ZM45.6519 2.75254L45.5235 2.71157L44.1315 7.0732L44.2599 7.11417L44.3883 7.15515L45.7803 2.79352L45.6519 2.75254ZM44.2599 7.11417V7.24894H46.8912V7.11417V6.9794H44.2599V7.11417Z" fill="var(--stroke-0, white)" mask="url(#path-4-inside-2_0_62)"/>
</g>
<g id="Vector_4">
<mask id="path-6-inside-3_0_62" fill="white">
<path d="M34.5884 2.75254L32.8102 8.31769L30.8075 8.32674L32.5677 2.75254"/>
</mask>
<path d="M34.5884 2.75254L32.8102 8.31769L30.8075 8.32674L32.5677 2.75254" fill="var(--fill-0, white)"/>
<path d="M32.8102 8.31769L32.8108 8.45246L32.9088 8.45202L32.9386 8.35871L32.8102 8.31769ZM30.8075 8.32674L30.679 8.28616L30.6234 8.46234L30.8081 8.46151L30.8075 8.32674ZM34.5884 2.75254L34.46 2.71152L32.6818 8.27668L32.8102 8.31769L32.9386 8.35871L34.7168 2.79356L34.5884 2.75254ZM32.8102 8.31769L32.8096 8.18293L30.8069 8.19198L30.8075 8.32674L30.8081 8.46151L32.8108 8.45246L32.8102 8.31769ZM30.8075 8.32674L30.936 8.36732L32.6963 2.79312L32.5677 2.75254L32.4392 2.71196L30.679 8.28616L30.8075 8.32674Z" fill="var(--stroke-0, white)" mask="url(#path-6-inside-3_0_62)"/>
</g>
<g id="Vector_5">
<mask id="path-8-inside-4_0_62" fill="white">
<path d="M29.1276 2.75254L27.7626 7.09607H30.4029L30.0077 8.32674L25.3558 8.31769L27.1339 2.75254"/>
</mask>
<path d="M29.1276 2.75254L27.7626 7.09607H30.4029L30.0077 8.32674L25.3558 8.31769L27.1339 2.75254" fill="var(--fill-0, white)"/>
<path d="M27.7626 7.09607L27.634 7.05567L27.5789 7.23084H27.7626V7.09607ZM30.4029 7.09607L30.5312 7.13727L30.5877 6.96131H30.4029V7.09607ZM30.0077 8.32674L30.0075 8.46151L30.1059 8.4617L30.136 8.36794L30.0077 8.32674ZM25.3558 8.31769L25.2274 8.27668L25.1713 8.4521L25.3555 8.45246L25.3558 8.31769ZM29.1276 2.75254L28.9991 2.71214L27.634 7.05567L27.7626 7.09607L27.8911 7.13648L29.2562 2.79295L29.1276 2.75254ZM27.7626 7.09607V7.23084H30.4029V7.09607V6.96131H27.7626V7.09607ZM30.4029 7.09607L30.2746 7.05487L29.8794 8.28554L30.0077 8.32674L30.136 8.36794L30.5312 7.13727L30.4029 7.09607ZM30.0077 8.32674L30.008 8.19198L25.356 8.18293L25.3558 8.31769L25.3555 8.45246L30.0075 8.46151L30.0077 8.32674ZM25.3558 8.31769L25.4841 8.35871L27.2623 2.79356L27.1339 2.75254L27.0055 2.71152L25.2274 8.27668L25.3558 8.31769Z" fill="var(--stroke-0, white)" mask="url(#path-8-inside-4_0_62)"/>
</g>
<g id="Vector_6">
<mask id="path-10-inside-5_0_62" fill="white">
<path d="M6.38139 2.7252C5.19594 2.7252 4.73793 2.98762 4.41463 3.78393L3.31899 7.23161C3.1304 7.8379 3.69618 8.3175 4.59424 8.3175H10.1353L11.5542 7.3583H15.4608L15.1555 8.30845H17.1581L18.9453 2.7433H16.1523L9.78504 7.06873H5.42046L6.44425 3.88347H9.9916L11.7069 2.7252H6.38139ZM15.829 6.08239H13.4491L16.4756 4.03731"/>
</mask>
<path d="M6.38139 2.7252C5.19594 2.7252 4.73793 2.98762 4.41463 3.78393L3.31899 7.23161C3.1304 7.8379 3.69618 8.3175 4.59424 8.3175H10.1353L11.5542 7.3583H15.4608L15.1555 8.30845H17.1581L18.9453 2.7433H16.1523L9.78504 7.06873H5.42046L6.44425 3.88347H9.9916L11.7069 2.7252H6.38139ZM15.829 6.08239H13.4491L16.4756 4.03731" fill="var(--fill-0, white)"/>
<path d="M4.41463 3.78393L4.28938 3.73308L4.28619 3.74312L4.41463 3.78393ZM3.31899 7.23161L3.19055 7.1908L3.19031 7.19158L3.31899 7.23161ZM10.1353 8.3175V8.45226H10.1766L10.2108 8.42914L10.1353 8.3175ZM11.5542 7.3583V7.22353H11.5129L11.4788 7.24665L11.5542 7.3583ZM15.4608 7.3583L15.5891 7.39953L15.6457 7.22353H15.4608V7.3583ZM15.1555 8.30845L15.0272 8.26721L14.9706 8.44321H15.1555V8.30845ZM17.1581 8.30845V8.44321H17.2564L17.2865 8.34965L17.1581 8.30845ZM18.9453 2.7433L19.0736 2.7845L19.1301 2.60853H18.9453V2.7433ZM16.1523 2.7433V2.60853H16.1109L16.0766 2.63182L16.1523 2.7433ZM9.78504 7.06873V7.2035H9.82649L9.86077 7.18021L9.78504 7.06873ZM5.42046 7.06873L5.29216 7.02749L5.23559 7.2035H5.42046V7.06873ZM6.44425 3.88347V3.74871H6.34601L6.31595 3.84223L6.44425 3.88347ZM9.9916 3.88347V4.01824H10.0328L10.067 3.99516L9.9916 3.88347ZM11.7069 2.7252L11.7823 2.83689L12.1473 2.59043H11.7069V2.7252ZM13.4491 6.08239L13.3737 5.97072L13.009 6.21715H13.4491V6.08239ZM6.38139 2.7252V2.59043C5.78294 2.59043 5.34391 2.65579 5.01023 2.83761C4.66995 3.02301 4.45807 3.31868 4.28976 3.73324L4.41463 3.78393L4.5395 3.83463C4.69449 3.45288 4.87326 3.21918 5.13918 3.07429C5.41169 2.92581 5.79439 2.85996 6.38139 2.85996V2.7252ZM4.41463 3.78393L4.28619 3.74312L3.19055 7.1908L3.31899 7.23161L3.44743 7.27243L4.54307 3.82475L4.41463 3.78393ZM3.31899 7.23161L3.19031 7.19158C3.07874 7.55026 3.19382 7.87669 3.46182 8.10458C3.72349 8.32708 4.12409 8.45226 4.59424 8.45226V8.3175V8.18273C4.16632 8.18273 3.83501 8.06811 3.63642 7.89924C3.44416 7.73576 3.37066 7.51925 3.44768 7.27164L3.31899 7.23161ZM4.59424 8.3175V8.45226H10.1353V8.3175V8.18273H4.59424V8.3175ZM10.1353 8.3175L10.2108 8.42914L11.6297 7.46995L11.5542 7.3583L11.4788 7.24665L10.0598 8.20585L10.1353 8.3175ZM11.5542 7.3583V7.49307H15.4608V7.3583V7.22353H11.5542V7.3583ZM15.4608 7.3583L15.3325 7.31707L15.0272 8.26721L15.1555 8.30845L15.2838 8.34968L15.5891 7.39953L15.4608 7.3583ZM15.1555 8.30845V8.44321H17.1581V8.30845V8.17368H15.1555V8.30845ZM17.1581 8.30845L17.2865 8.34965L19.0736 2.7845L18.9453 2.7433L18.817 2.70209L17.0298 8.26724L17.1581 8.30845ZM18.9453 2.7433V2.60853H16.1523V2.7433V2.87806H18.9453V2.7433ZM16.1523 2.7433L16.0766 2.63182L9.70931 6.95725L9.78504 7.06873L9.86077 7.18021L16.228 2.85477L16.1523 2.7433ZM9.78504 7.06873V6.93396H5.42046V7.06873V7.2035H9.78504V7.06873ZM5.42046 7.06873L5.54876 7.10997L6.57255 3.92471L6.44425 3.88347L6.31595 3.84223L5.29216 7.02749L5.42046 7.06873ZM6.44425 3.88347V4.01824H9.9916V3.88347V3.74871H6.44425V3.88347ZM9.9916 3.88347L10.067 3.99516L11.7823 2.83689L11.7069 2.7252L11.6315 2.61351L9.91618 3.77179L9.9916 3.88347ZM11.7069 2.7252V2.59043H6.38139V2.7252V2.85996H11.7069V2.7252ZM15.829 6.08239V5.94762H13.4491V6.08239V6.21715H15.829V6.08239ZM13.4491 6.08239L13.5246 6.19405L16.5511 4.14897L16.4756 4.03731L16.4002 3.92564L13.3737 5.97072L13.4491 6.08239Z" fill="var(--stroke-0, white)" mask="url(#path-10-inside-5_0_62)"/>
</g>
<path id="Vector_7" d="M37.7127 2.81992H42.4676L42.1004 3.90684H37.8817C37.6215 3.91145 37.4354 3.94603 37.2938 4.01426C37.15 4.08354 37.0577 4.18426 36.9813 4.30918C36.8972 4.44382 36.8724 4.59645 36.9344 4.72031C36.9979 4.84677 37.1398 4.91943 37.3348 4.91953H40.5956C40.9446 4.91535 41.2218 5.10247 41.3797 5.40489C41.5384 5.70887 41.5767 6.13094 41.4373 6.5875C41.2995 7.03897 40.9418 7.45308 40.5096 7.75645C40.0771 8.05995 39.5803 8.24622 39.1756 8.25059H33.7459L34.0975 7.14512H38.7274C39.0412 7.14511 39.259 7.10912 39.4198 7.03672C39.5833 6.96303 39.6824 6.85412 39.7635 6.72422C39.844 6.59531 39.8867 6.44038 39.8094 6.31211C39.733 6.18578 39.5589 6.11945 39.2938 6.11485H36.075C35.7684 6.08551 35.5206 5.90273 35.3807 5.61778C35.2403 5.33161 35.2075 4.93977 35.3426 4.50059H35.3436C35.464 4.10211 35.7646 3.73213 36.1395 3.44102C36.514 3.15031 36.9559 2.94299 37.3485 2.86387H37.3495C37.4723 2.83734 37.5934 2.81992 37.7127 2.81992Z" fill="var(--fill-0, white)" stroke="var(--stroke-0, white)" stroke-width="0.134766"/>
<path id="Vector_8" d="M24.4225 2.81992C24.7728 2.81992 25.0431 3.00103 25.194 3.29551C25.3459 3.5922 25.3777 4.00797 25.2379 4.47031C25.0214 5.18573 24.2788 5.80665 23.565 6.05528L23.4908 6.08164L23.5279 6.15098L23.5826 6.25059L24.694 8.25059H22.7467L21.1608 5.4166H22.2711C22.5314 5.40303 22.7793 5.38021 22.9947 5.29551C23.1864 5.22014 23.3506 5.09665 23.4781 4.89317L23.5309 4.80137C23.6558 4.55924 23.655 4.31983 23.5055 4.14121C23.36 3.96747 23.0887 3.87071 22.7164 3.87071H21.4459L21.4313 3.91758L20.982 5.32871L20.9811 5.33067L20.1158 8.25059H18.1393L19.8834 2.81992H24.4225Z" fill="var(--fill-0, white)" stroke="var(--stroke-0, white)" stroke-width="0.134766"/>
<g id="Vector_9">
<mask id="path-14-inside-6_0_62" fill="white">
<path d="M53.1236 8.83347C53.1775 8.83347 53.2224 8.82442 53.2224 8.76108C53.2224 8.68868 53.1506 8.68868 53.0967 8.68868H52.971V8.83347H53.1236ZM53.3032 9.12304H53.1865L53.0698 8.90586H52.971V9.12304H52.8722V8.61629H53.1147C53.1596 8.61629 53.2134 8.61629 53.2494 8.64344C53.2942 8.67059 53.3122 8.72488 53.3122 8.77917C53.3122 8.86966 53.2673 8.91491 53.1775 8.91491L53.3032 9.12304ZM53.4469 8.86062C53.4469 8.64344 53.2763 8.48056 53.0698 8.48056C52.8633 8.48056 52.6927 8.65249 52.6927 8.86062C52.6927 9.06874 52.8633 9.24972 53.0698 9.24972C53.2763 9.24972 53.4469 9.07779 53.4469 8.86062ZM52.5939 8.86062C52.5939 8.59819 52.8004 8.39007 53.0608 8.39007C53.3212 8.39007 53.5277 8.59819 53.5277 8.86062C53.5277 9.12304 53.3122 9.33117 53.0608 9.33117C52.8094 9.34021 52.5939 9.12304 52.5939 8.86062Z"/>
</mask>
<path d="M53.1236 8.83347C53.1775 8.83347 53.2224 8.82442 53.2224 8.76108C53.2224 8.68868 53.1506 8.68868 53.0967 8.68868H52.971V8.83347H53.1236ZM53.3032 9.12304H53.1865L53.0698 8.90586H52.971V9.12304H52.8722V8.61629H53.1147C53.1596 8.61629 53.2134 8.61629 53.2494 8.64344C53.2942 8.67059 53.3122 8.72488 53.3122 8.77917C53.3122 8.86966 53.2673 8.91491 53.1775 8.91491L53.3032 9.12304ZM53.4469 8.86062C53.4469 8.64344 53.2763 8.48056 53.0698 8.48056C52.8633 8.48056 52.6927 8.65249 52.6927 8.86062C52.6927 9.06874 52.8633 9.24972 53.0698 9.24972C53.2763 9.24972 53.4469 9.07779 53.4469 8.86062ZM52.5939 8.86062C52.5939 8.59819 52.8004 8.39007 53.0608 8.39007C53.3212 8.39007 53.5277 8.59819 53.5277 8.86062C53.5277 9.12304 53.3122 9.33117 53.0608 9.33117C52.8094 9.34021 52.5939 9.12304 52.5939 8.86062Z" fill="var(--fill-0, white)"/>
<path d="M52.971 8.68868V8.55392H52.8362V8.68868H52.971ZM52.971 8.83347H52.8362V8.96824H52.971V8.83347ZM53.3032 9.12304V9.2578H53.5421L53.4186 9.05337L53.3032 9.12304ZM53.1865 9.12304L53.0678 9.18684L53.1059 9.2578H53.1865V9.12304ZM53.0698 8.90586L53.1885 8.84206L53.1503 8.77109H53.0698V8.90586ZM52.971 8.90586V8.77109H52.8362V8.90586H52.971ZM52.971 9.12304V9.2578H53.1058V9.12304H52.971ZM52.8722 9.12304H52.7375V9.2578H52.8722V9.12304ZM52.8722 8.61629V8.48153H52.7375V8.61629H52.8722ZM53.2494 8.64344L53.1677 8.75153L53.1796 8.75876L53.2494 8.64344ZM53.1775 8.91491V8.78014H52.9387L53.0622 8.98458L53.1775 8.91491ZM53.0608 9.33117V9.19631L53.0559 9.19649L53.0608 9.33117ZM53.1236 8.83347V8.96824C53.151 8.96824 53.2081 8.96752 53.2597 8.93827C53.2893 8.92149 53.3161 8.89609 53.3342 8.86107C53.3516 8.82745 53.3572 8.79245 53.3572 8.76108H53.2224H53.0876C53.0876 8.76107 53.0876 8.76048 53.0878 8.75939C53.0879 8.7583 53.0881 8.75664 53.0885 8.75452C53.0894 8.75021 53.0913 8.74411 53.0949 8.73715C53.1029 8.72165 53.1151 8.71038 53.1268 8.70379C53.1366 8.6982 53.1431 8.69758 53.141 8.69791C53.1391 8.69821 53.1341 8.6987 53.1236 8.6987V8.83347ZM53.2224 8.76108H53.3572C53.3572 8.71985 53.3465 8.6765 53.3185 8.63877C53.291 8.60191 53.2556 8.58198 53.2261 8.5712C53.1746 8.55229 53.117 8.55392 53.0967 8.55392V8.68868V8.82345C53.111 8.82345 53.1203 8.82352 53.1285 8.82416C53.1368 8.82482 53.1373 8.82568 53.1334 8.82427C53.1287 8.82254 53.1145 8.81618 53.1022 8.79968C53.0893 8.78231 53.0876 8.76611 53.0876 8.76108H53.2224ZM53.0967 8.68868V8.55392H52.971V8.68868V8.82345H53.0967V8.68868ZM52.971 8.68868H52.8362V8.83347H52.971H53.1058V8.68868H52.971ZM52.971 8.83347V8.96824H53.1236V8.83347V8.6987H52.971V8.83347ZM53.3032 9.12304V8.98827H53.1865V9.12304V9.2578H53.3032V9.12304ZM53.1865 9.12304L53.3052 9.05924L53.1885 8.84206L53.0698 8.90586L52.9511 8.96966L53.0678 9.18684L53.1865 9.12304ZM53.0698 8.90586V8.77109H52.971V8.90586V9.04063H53.0698V8.90586ZM52.971 8.90586H52.8362V9.12304H52.971H53.1058V8.90586H52.971ZM52.971 9.12304V8.98827H52.8722V9.12304V9.2578H52.971V9.12304ZM52.8722 9.12304H53.007V8.61629H52.8722H52.7375V9.12304H52.8722ZM52.8722 8.61629V8.75106H53.1147V8.61629V8.48153H52.8722V8.61629ZM53.1147 8.61629V8.75106C53.1388 8.75106 53.1538 8.75129 53.1662 8.75308C53.1785 8.75485 53.1756 8.75664 53.1681 8.75095L53.2494 8.64344L53.3306 8.53593C53.2872 8.50309 53.2394 8.49131 53.2046 8.48629C53.1699 8.48129 53.1354 8.48153 53.1147 8.48153V8.61629ZM53.2494 8.64344L53.1796 8.75876C53.177 8.75717 53.175 8.75531 53.1739 8.7539C53.1728 8.75262 53.1729 8.75234 53.1736 8.75387C53.1743 8.75543 53.1753 8.75839 53.1761 8.76293C53.1769 8.76745 53.1774 8.77293 53.1774 8.77917H53.3122H53.447C53.447 8.7029 53.422 8.59037 53.3191 8.52812L53.2494 8.64344ZM53.3122 8.77917H53.1774C53.1774 8.79106 53.1759 8.796 53.1758 8.79624C53.1758 8.79624 53.1759 8.79593 53.1762 8.79535C53.1765 8.79476 53.1769 8.79394 53.1775 8.79295C53.1787 8.79088 53.1805 8.78846 53.1829 8.78605C53.1881 8.78083 53.1928 8.77893 53.1935 8.77868C53.1936 8.77864 53.189 8.78014 53.1775 8.78014V8.91491V9.04968C53.2435 9.04968 53.3176 9.03294 53.3742 8.9759C53.4306 8.91905 53.447 8.84493 53.447 8.77917H53.3122ZM53.1775 8.91491L53.0622 8.98458L53.1879 9.19271L53.3032 9.12304L53.4186 9.05337L53.2929 8.84524L53.1775 8.91491ZM53.4469 8.86062H53.5817C53.5817 8.5679 53.3496 8.34579 53.0698 8.34579V8.48056V8.61532C53.203 8.61532 53.3121 8.71898 53.3121 8.86062H53.4469ZM53.0698 8.48056V8.34579C52.7878 8.34579 52.5579 8.57905 52.5579 8.86062H52.6927H52.8274C52.8274 8.72593 52.9387 8.61532 53.0698 8.61532V8.48056ZM52.6927 8.86062H52.5579C52.5579 9.13804 52.7838 9.38449 53.0698 9.38449V9.24972V9.11496C52.9427 9.11496 52.8274 8.99945 52.8274 8.86062H52.6927ZM53.0698 9.24972V9.38449C53.3538 9.38449 53.5817 9.14915 53.5817 8.86062H53.4469H53.3121C53.3121 9.00644 53.1988 9.11496 53.0698 9.11496V9.24972ZM52.5939 8.86062H52.7287C52.7287 8.67163 52.8758 8.52483 53.0608 8.52483V8.39007V8.2553C52.725 8.2553 52.4591 8.52476 52.4591 8.86062H52.5939ZM53.0608 8.39007V8.52483C53.2458 8.52483 53.3929 8.67163 53.3929 8.86062H53.5277H53.6625C53.6625 8.52476 53.3966 8.2553 53.0608 8.2553V8.39007ZM53.5277 8.86062H53.3929C53.3929 9.04792 53.2385 9.1964 53.0608 9.1964V9.33117V9.46593C53.3859 9.46593 53.6625 9.19816 53.6625 8.86062H53.5277ZM53.0608 9.33117L53.0559 9.19649C52.8864 9.20259 52.7287 9.05243 52.7287 8.86062H52.5939H52.4591C52.4591 9.19364 52.7324 9.47784 53.0656 9.46584L53.0608 9.33117Z" fill="var(--stroke-0, #003591)" mask="url(#path-14-inside-6_0_62)"/>
</g>
</g>
</svg>
