<svg preserveAspectRatio="none" width="100%" height="100%" overflow="visible" style="display: block;" viewBox="0 0 16 16" fill="none" xmlns="http://www.w3.org/2000/svg">
<g id="expand-arrows-alt 1" clip-path="url(#clip0_0_36)">
<path id="Vector" d="M13.812 3.13333L16 5.33333V0.666667C16 0.489856 15.9298 0.320286 15.8047 0.195262C15.6797 0.0702379 15.5101 0 15.3333 0L10.6987 0L12.8727 2.18667L7.99067 7.06667L3.124 2.2L5.33333 0H0.666667C0.489856 0 0.320286 0.0702379 0.195262 0.195262C0.0702379 0.320286 0 0.489856 0 0.666667L0 5.30133L2.17533 3.13867L7.048 8.01133L2.19 12.8667L0 10.6667V15.3333C0 15.5101 0.0702379 15.6797 0.195262 15.8047C0.320286 15.9298 0.489856 16 0.666667 16H5.30133L3.12933 13.8153L7.99067 8.954L12.8573 13.8207L10.6667 16H15.3333C15.5101 16 15.6797 15.9298 15.8047 15.8047C15.9298 15.6797 16 15.5101 16 15.3333V10.6987L13.804 12.8813L8.93333 8.01467L13.812 3.13333Z" fill="var(--fill-0, #1A191B)"/>
</g>
<defs>
<clipPath id="clip0_0_36">
<rect width="16" height="16" fill="white"/>
</clipPath>
</defs>
</svg>
