<svg preserveAspectRatio="none" width="100%" height="100%" overflow="visible" style="display: block;" viewBox="0 0 10 10" fill="none" xmlns="http://www.w3.org/2000/svg">
<g id="marker (1) 1" clip-path="url(#clip0_0_25)">
<path id="Vector" d="M5 -1.49012e-07C3.8953 0.00121302 2.8362 0.440589 2.05506 1.22173C1.27392 2.00287 0.834546 3.06197 0.833333 4.16667C0.833333 6.3675 4.33333 9.38875 4.73083 9.72625L5 9.95375L5.26917 9.72625C5.66667 9.38875 9.16667 6.3675 9.16667 4.16667C9.16545 3.06197 8.72608 2.00287 7.94494 1.22173C7.1638 0.440589 6.1047 0.00121302 5 -1.49012e-07ZM5 6.25C4.58796 6.25 4.18516 6.12781 3.84256 5.89889C3.49996 5.66997 3.23293 5.3446 3.07525 4.96392C2.91757 4.58324 2.87631 4.16436 2.9567 3.76023C3.03708 3.3561 3.2355 2.98489 3.52686 2.69353C3.81822 2.40217 4.18943 2.20375 4.59356 2.12336C4.99769 2.04298 5.41658 2.08423 5.79726 2.24192C6.17794 2.3996 6.50331 2.66663 6.73223 3.00923C6.96115 3.35183 7.08333 3.75462 7.08333 4.16667C7.08267 4.719 6.86297 5.24852 6.47241 5.63907C6.08185 6.02963 5.55233 6.24934 5 6.25Z" fill="var(--fill-0, #797D7E)"/>
</g>
<defs>
<clipPath id="clip0_0_25">
<rect width="10" height="10" fill="white"/>
</clipPath>
</defs>
</svg>
