<svg preserveAspectRatio="none" width="100%" height="100%" overflow="visible" style="display: block;" viewBox="0 0 16 16" fill="none" xmlns="http://www.w3.org/2000/svg">
<g id="map-marker 1" clip-path="url(#clip0_0_45)">
<path id="Vector" d="M8 8C8.52742 8 9.04299 7.8436 9.48152 7.55059C9.92005 7.25757 10.2618 6.84109 10.4637 6.35382C10.6655 5.86655 10.7183 5.33038 10.6154 4.81309C10.5125 4.29581 10.2586 3.82066 9.88562 3.44772C9.51268 3.07478 9.03752 2.8208 8.52024 2.71791C8.00296 2.61501 7.46678 2.66782 6.97951 2.86965C6.49224 3.07149 6.07577 3.41328 5.78275 3.85181C5.48973 4.29034 5.33333 4.80592 5.33333 5.33333C5.33333 6.04058 5.61429 6.71886 6.11438 7.21895C6.61448 7.71905 7.29276 8 8 8ZM8 4C8.26371 4 8.5215 4.0782 8.74076 4.22471C8.96003 4.37122 9.13092 4.57945 9.23184 4.82309C9.33276 5.06672 9.35916 5.33481 9.30771 5.59345C9.25627 5.8521 9.12928 6.08967 8.94281 6.27614C8.75634 6.46261 8.51876 6.5896 8.26012 6.64105C8.00148 6.69249 7.73339 6.66609 7.48976 6.56517C7.24612 6.46426 7.03788 6.29336 6.89137 6.07409C6.74487 5.85483 6.66667 5.59704 6.66667 5.33333C6.66667 4.97971 6.80714 4.64057 7.05719 4.39052C7.30724 4.14048 7.64638 4 8 4ZM10.6667 14.6867L16 15.9853V8.98867C15.9999 8.55925 15.8615 8.14128 15.6054 7.79659C15.3493 7.45189 14.9891 7.19877 14.578 7.07467L13.178 6.608C13.2804 6.19217 13.3325 5.76557 13.3333 5.33733C13.3333 3.92285 12.7714 2.56629 11.7712 1.5661C10.771 0.565903 9.41449 0.00399976 8 0.00399976C6.58551 0.00399976 5.22896 0.565903 4.22876 1.5661C3.22857 2.56629 2.66667 3.92285 2.66667 5.33733C2.66864 5.60796 2.69092 5.87805 2.73333 6.14533C2.43058 6.02464 2.10286 5.97997 1.77885 6.01523C1.45483 6.0505 1.1444 6.16462 0.874697 6.34762C0.604996 6.53062 0.384248 6.77693 0.231763 7.06498C0.0792783 7.35304 -0.000296537 7.67407 -2.38418e-07 8V14.5013L5.322 16.022L10.6667 14.6867ZM5.17133 2.50933C5.92283 1.7685 6.93663 1.35465 7.99188 1.35792C9.04714 1.36119 10.0584 1.78133 10.8052 2.52681C11.5521 3.27229 11.9742 4.2827 11.9794 5.33795C11.9847 6.3932 11.5727 7.40778 10.8333 8.16067L8 10.9333L5.17133 8.166C4.42125 7.41586 3.99985 6.39849 3.99985 5.33767C3.99985 4.27685 4.42125 3.25947 5.17133 2.50933ZM1.33333 8C1.33249 7.89005 1.35927 7.78164 1.41122 7.68473C1.46318 7.58782 1.53863 7.5055 1.63067 7.44533C1.72694 7.38215 1.83785 7.34479 1.95274 7.33685C2.06762 7.32891 2.18262 7.35066 2.28667 7.4L3.24267 7.74533C3.49844 8.25184 3.83305 8.71449 4.234 9.116L8 12.8L11.7713 9.11133C12.1422 8.74104 12.4566 8.31831 12.7047 7.85667L14.1827 8.35067C14.3219 8.39049 14.4443 8.47454 14.5315 8.59013C14.6187 8.70571 14.6659 8.84655 14.666 8.99133V14.2907L10.6667 13.3133L5.34667 14.6467L1.33333 13.4973V8Z" fill="var(--fill-0, #797D7E)"/>
</g>
<defs>
<clipPath id="clip0_0_45">
<rect width="16" height="16" fill="white"/>
</clipPath>
</defs>
</svg>
