<svg preserveAspectRatio="none" width="100%" height="100%" overflow="visible" style="display: block;" viewBox="0 0 16 16" fill="none" xmlns="http://www.w3.org/2000/svg">
<g id="phone-flip 1" clip-path="url(#clip0_0_20)">
<path id="Vector" d="M14.8533 2.19333L12.74 0.0799998L8.56667 4.26L10.84 6.53333C9.92667 8.57333 8.51333 9.99333 6.54 10.8467L4.26667 8.57333L0.0799998 12.74L2.19333 14.8533C2.93333 15.5933 3.92667 16 5 16C9.83333 16 16 9.83333 16 5C16 3.92667 15.5933 2.93333 14.8533 2.19333ZM5 14.6667C4.28667 14.6667 3.62 14.4 3.14 13.9133L1.96667 12.74L4.26 10.4467L6.21333 12.4L6.62 12.2467C9.26 11.24 11.16 9.34667 12.2533 6.62L12.42 6.21333L10.4667 4.25333L12.76 1.96L13.9333 3.13333C14.42 3.62 14.6867 4.28 14.6867 4.99333C14.6867 9.14667 9.17333 14.66 5.02 14.66L5 14.6667Z" fill="var(--fill-0, #797D7E)"/>
</g>
<defs>
<clipPath id="clip0_0_20">
<rect width="16" height="16" fill="white"/>
</clipPath>
</defs>
</svg>
