<svg preserveAspectRatio="none" width="100%" height="100%" overflow="visible" style="display: block;" viewBox="0 0 10 10" fill="none" xmlns="http://www.w3.org/2000/svg">
<g id="calendar (1) 1" clip-path="url(#clip0_0_112)">
<path id="Vector" d="M10 4.16667V10H0V4.16667H10ZM10 3.33333V2.08333C10 1.75181 9.8683 1.43387 9.63388 1.19945C9.39946 0.965029 9.08152 0.833333 8.75 0.833333H7.5V0H6.66667V0.833333H3.33333V0H2.5V0.833333H1.25C0.918479 0.833333 0.600537 0.965029 0.366117 1.19945C0.131696 1.43387 0 1.75181 0 2.08333L0 3.33333H10ZM7.5 5.83333H6.66667V6.66667H7.5V5.83333ZM5.41667 5.83333H4.58333V6.66667H5.41667V5.83333ZM3.33333 5.83333H2.5V6.66667H3.33333V5.83333ZM7.5 7.5H6.66667V8.33333H7.5V7.5ZM5.41667 7.5H4.58333V8.33333H5.41667V7.5ZM3.33333 7.5H2.5V8.33333H3.33333V7.5Z" fill="var(--fill-0, #797D7E)"/>
</g>
<defs>
<clipPath id="clip0_0_112">
<rect width="10" height="10" fill="white"/>
</clipPath>
</defs>
</svg>
