<svg preserveAspectRatio="none" width="100%" height="100%" overflow="visible" style="display: block;" viewBox="0 0 8 8" fill="none" xmlns="http://www.w3.org/2000/svg">
<g id="camera 1" clip-path="url(#clip0_0_30)">
<path id="Vector" d="M4 6.33333C4.73638 6.33333 5.33333 5.73638 5.33333 5C5.33333 4.26362 4.73638 3.66667 4 3.66667C3.26362 3.66667 2.66667 4.26362 2.66667 5C2.66667 5.73638 3.26362 6.33333 4 6.33333Z" fill="var(--fill-0, #797D7E)"/>
<path id="Vector_2" d="M7 1.66667H1C0.734783 1.66667 0.480429 1.77202 0.292893 1.95956C0.105357 2.1471 -1.19209e-07 2.40145 -1.19209e-07 2.66667L-1.19209e-07 8H8V2.66667C8 2.40145 7.89464 2.1471 7.70711 1.95956C7.51957 1.77202 7.26522 1.66667 7 1.66667ZM4 7C3.60444 7 3.21776 6.8827 2.88886 6.66294C2.55996 6.44318 2.30362 6.13082 2.15224 5.76537C2.00087 5.39991 1.96126 4.99778 2.03843 4.60982C2.1156 4.22186 2.30608 3.86549 2.58579 3.58579C2.86549 3.30608 3.22186 3.1156 3.60982 3.03843C3.99778 2.96126 4.39991 3.00087 4.76537 3.15224C5.13082 3.30362 5.44318 3.55996 5.66294 3.88886C5.8827 4.21776 6 4.60444 6 5C5.99947 5.53027 5.78859 6.03867 5.41363 6.41363C5.03867 6.78859 4.53027 6.99947 4 7Z" fill="var(--fill-0, #797D7E)"/>
<path id="Vector_3" d="M5.90667 1L5.13533 -1.19209e-07H2.86433L2.09333 1H5.90667Z" fill="var(--fill-0, #797D7E)"/>
</g>
<defs>
<clipPath id="clip0_0_30">
<rect width="8" height="8" fill="white"/>
</clipPath>
</defs>
</svg>
