<svg preserveAspectRatio="none" width="100%" height="100%" overflow="visible" style="display: block;" viewBox="0 0 12 12" fill="none" xmlns="http://www.w3.org/2000/svg">
<g id="wrench-alt (1) 1" clip-path="url(#clip0_0_28)">
<path id="Vector" d="M11.5065 1.888L9.2075 4.187C8.817 4.5775 8.184 4.5775 7.7935 4.187C7.403 3.7965 7.403 3.1635 7.7935 2.773L10.086 0.4795L9.94 0.4055C9.409 0.136 8.84 -0.0005 8.2495 -0.0005C6.1815 -0.0005 4.4995 1.6815 4.4995 3.7495C4.4995 4.229 4.5885 4.6925 4.765 5.133L0.459 9.4395C-0.125 10.0245 -0.125 10.9755 0.459 11.5605C0.7515 11.853 1.1355 11.999 1.5195 11.999C1.9035 11.999 2.288 11.853 2.5805 11.5605L6.896 7.245C7.3285 7.4145 7.7825 7.5 8.25 7.5C10.318 7.5 12 5.818 12 3.75C12 3.146 11.8585 2.567 11.5795 2.029L11.5065 1.888Z" fill="var(--fill-0, white)"/>
</g>
<defs>
<clipPath id="clip0_0_28">
<rect width="12" height="12" fill="white"/>
</clipPath>
</defs>
</svg>
