<svg preserveAspectRatio="none" width="100%" height="100%" overflow="visible" style="display: block;" viewBox="0 0 110 28" fill="none" xmlns="http://www.w3.org/2000/svg">
<g id="Subtract">
<path fill-rule="evenodd" clip-rule="evenodd" d="M32.483 0.135885C36.3261 0.135889 38.4306 4.07767 36.9666 8.83494C36.564 10.1353 35.8274 11.3676 34.8804 12.4776C32.3824 15.4045 28.6262 16.9903 24.7511 16.9903H14.1187L10.7972 28H0L9.10443 0.135885H32.483ZM17.5683 6.0712L15.2808 13.1391H21.5028C24.1563 13.0032 26.3524 12.6861 27.6334 10.2395C28.8229 7.97412 27.4962 6.07121 23.7904 6.0712H17.5683Z" fill="var(--fill-0, white)"/>
<path d="M67.3542 0.135885C71.1973 0.135885 73.3018 4.07767 71.8378 8.83494C70.694 12.5501 66.8052 15.7217 63.0994 16.9903L63.3739 17.4887L69.3215 28H58.6158L50.1519 13.1391H56.3741C59.0276 13.0032 61.2236 12.6861 62.5046 10.2395C63.6941 7.97412 62.3674 6.0712 58.6616 6.0712H52.4394L50.1519 13.1391L45.6684 28H34.8712L43.9756 0.135885H67.3542Z" fill="var(--fill-0, white)"/>
<path fill-rule="evenodd" clip-rule="evenodd" d="M103.319 0C107.894 1.22112e-05 110.776 2.40128 109.815 5.43687L104.234 22.699C102.605 26.6362 100.304 27.9638 94.4386 28H78.2657C73.6907 28 70.8084 25.5987 71.7692 22.5631L77.3508 5.30098C78.9749 1.36377 81.2762 0.036247 87.146 0H103.319ZM89.0493 5.6413L83.6486 9.82067H91.9989L87.4976 10.9065L84.8383 18.8191C84.4373 20.0121 83.6095 21.0217 82.5086 21.6604L81.3044 22.3589H95.7576L95.6344 22.1209C95.1538 21.1928 95.074 20.1136 95.4131 19.127L99.6491 6.80216C99.8451 6.23197 99.4136 5.64112 98.8012 5.64113L89.0493 5.6413Z" fill="var(--fill-0, white)"/>
</g>
</svg>
